<svg xmlns="http://www.w3.org/2000/svg" xmlns:xlink="http://www.w3.org/1999/xlink" width="500" zoomAndPan="magnify" viewBox="0 0 375 374.999991" height="500" preserveAspectRatio="xMidYMid meet" version="1.0"><defs><clipPath id="e2cd7bbb04"><path d="M 122.332031 96.726562 L 278.332031 96.726562 L 278.332031 252.726562 L 122.332031 252.726562 Z M 122.332031 96.726562 " clip-rule="nonzero"/></clipPath></defs><g clip-path="url(#e2cd7bbb04)"><path fill="#1db0d9" d="M 196.289062 252.621094 C 196.535156 252.6875 196.789062 252.722656 197.046875 252.726562 C 197.515625 252.726562 197.984375 252.726562 198.453125 252.703125 C 199.078125 252.71875 199.703125 252.726562 200.332031 252.726562 C 208.277344 252.726562 216.84375 250.824219 224.4375 247.371094 C 232.597656 243.660156 239.019531 238.515625 242.992188 232.496094 C 248.144531 224.6875 248.871094 215.894531 245.09375 207.050781 C 239.621094 194.246094 225.125 190.164062 211.101562 186.21875 C 207.839844 185.304688 204.617188 184.398438 201.527344 183.398438 C 198.410156 181.921875 195.207031 180.660156 191.921875 179.617188 C 184.667969 176.011719 179.214844 170.910156 177.511719 162.273438 C 175.464844 151.828125 180.726562 141.582031 191.234375 135.53125 C 193.292969 134.367188 195.445312 133.40625 197.683594 132.644531 C 199.925781 131.882812 202.21875 131.339844 204.558594 131.007812 C 206.902344 130.675781 209.253906 130.5625 211.621094 130.671875 C 213.984375 130.777344 216.316406 131.105469 218.617188 131.648438 C 224.878906 133.773438 230.636719 136.84375 235.890625 140.855469 L 235.929688 140.878906 L 236.0625 140.96875 L 236.171875 141.039062 L 236.308594 141.113281 L 236.429688 141.175781 L 236.566406 141.230469 L 236.695312 141.28125 L 236.824219 141.320312 L 236.96875 141.363281 L 237.089844 141.386719 L 237.246094 141.414062 L 237.921875 141.414062 L 238.070312 141.398438 L 238.199219 141.375 L 238.34375 141.34375 L 238.472656 141.304688 L 238.609375 141.265625 L 238.738281 141.214844 L 238.867188 141.160156 L 238.992188 141.097656 C 239.03125 141.070312 239.074219 141.050781 239.117188 141.023438 C 239.160156 140.996094 239.195312 140.976562 239.230469 140.953125 L 239.355469 140.867188 L 239.457031 140.785156 C 239.5 140.75 239.539062 140.71875 239.578125 140.683594 C 239.617188 140.648438 239.644531 140.621094 239.675781 140.589844 C 239.707031 140.554688 239.75 140.515625 239.78125 140.476562 C 239.796875 140.46875 239.804688 140.457031 239.816406 140.445312 C 239.839844 140.417969 239.859375 140.390625 239.882812 140.359375 L 239.945312 140.289062 L 239.96875 140.253906 C 240.003906 140.207031 240.03125 140.164062 240.0625 140.113281 L 240.128906 140.007812 C 240.160156 139.960938 240.183594 139.914062 240.207031 139.863281 C 240.230469 139.816406 240.246094 139.789062 240.261719 139.753906 C 240.28125 139.71875 240.304688 139.65625 240.324219 139.609375 C 240.339844 139.5625 240.355469 139.527344 240.371094 139.488281 C 240.386719 139.445312 240.402344 139.394531 240.414062 139.347656 C 240.425781 139.304688 240.441406 139.257812 240.449219 139.214844 C 240.457031 139.167969 240.46875 139.125 240.480469 139.078125 C 240.488281 139.035156 240.496094 138.984375 240.503906 138.9375 C 240.507812 138.890625 240.503906 138.851562 240.503906 138.804688 C 240.503906 138.761719 240.503906 138.710938 240.503906 138.660156 C 240.503906 138.613281 240.503906 138.570312 240.503906 138.527344 C 240.503906 138.480469 240.503906 138.433594 240.503906 138.386719 C 240.507812 138.339844 240.507812 138.289062 240.503906 138.242188 C 240.503906 138.199219 240.503906 138.15625 240.488281 138.113281 C 240.472656 138.066406 240.46875 138.015625 240.460938 137.96875 C 240.453125 137.917969 240.460938 137.882812 240.433594 137.839844 C 240.40625 137.792969 240.40625 137.746094 240.394531 137.699219 C 240.378906 137.648438 240.367188 137.613281 240.355469 137.574219 C 240.339844 137.535156 240.316406 137.480469 240.300781 137.433594 C 240.28125 137.386719 240.265625 137.355469 240.25 137.3125 L 240.183594 137.183594 C 240.160156 137.144531 240.140625 137.101562 240.117188 137.0625 L 240.042969 136.945312 C 240.015625 136.90625 239.988281 136.867188 239.957031 136.828125 C 239.925781 136.789062 239.902344 136.753906 239.875 136.71875 C 239.84375 136.683594 239.808594 136.640625 239.773438 136.601562 L 239.679688 136.503906 C 239.640625 136.464844 239.605469 136.429688 239.566406 136.398438 C 239.558594 136.386719 239.546875 136.375 239.535156 136.363281 C 236.910156 134.035156 234.054688 132.03125 230.972656 130.355469 C 227.890625 128.675781 224.660156 127.363281 221.28125 126.417969 C 214.4375 123.996094 207.386719 122.789062 200.128906 122.789062 L 199.785156 122.789062 C 187.476562 122.851562 175.292969 126.632812 166.375 133.160156 C 154.921875 141.539062 150.371094 152.988281 154.207031 163.792969 C 158.753906 176.597656 169.589844 179.480469 181.066406 182.535156 C 183.910156 183.292969 186.839844 184.074219 189.8125 185.019531 C 192.910156 186.480469 196.09375 187.734375 199.359375 188.773438 C 207.292969 192.636719 215.1875 198.742188 222.261719 209.753906 C 227.027344 217.167969 227.441406 225.664062 223.394531 233.078125 C 218.851562 241.425781 209.5625 246.527344 198.402344 246.917969 C 159.472656 245.890625 128.117188 213.894531 128.117188 174.726562 C 128.117188 134.90625 160.511719 102.511719 200.332031 102.511719 C 240.152344 102.511719 272.546875 134.90625 272.546875 174.726562 C 272.558594 175.101562 272.640625 175.460938 272.792969 175.804688 C 272.945312 176.148438 273.15625 176.449219 273.425781 176.710938 C 273.695312 176.972656 274.007812 177.171875 274.355469 177.316406 C 274.703125 177.457031 275.066406 177.527344 275.441406 177.527344 C 275.816406 177.527344 276.179688 177.457031 276.527344 177.316406 C 276.875 177.171875 277.183594 176.972656 277.453125 176.710938 C 277.722656 176.449219 277.933594 176.148438 278.085938 175.804688 C 278.238281 175.460938 278.320312 175.101562 278.332031 174.726562 C 278.332031 131.714844 243.339844 96.726562 200.332031 96.726562 C 157.324219 96.726562 122.332031 131.714844 122.332031 174.726562 C 122.332031 216.378906 155.152344 250.507812 196.289062 252.621094 Z M 159.667969 161.871094 C 156.734375 153.613281 160.523438 144.625 169.796875 137.839844 C 175.402344 133.738281 182.542969 130.761719 190.433594 129.410156 C 189.726562 129.765625 189.03125 130.140625 188.347656 130.53125 C 175.632812 137.855469 169.304688 150.449219 171.835938 163.390625 C 172.660156 167.886719 174.484375 171.929688 177.308594 175.519531 C 168.785156 173.042969 162.617188 170.171875 159.667969 161.871094 Z M 227.136719 206.625 C 224.179688 201.957031 220.710938 197.707031 216.734375 193.871094 C 227.164062 197.054688 236.191406 200.949219 239.773438 209.328125 C 242.792969 216.394531 242.253906 223.117188 238.164062 229.308594 C 235.304688 233.644531 230.789062 237.476562 225.378906 240.453125 C 226.554688 239.015625 227.589844 237.480469 228.480469 235.851562 C 233.496094 226.667969 232.996094 215.742188 227.136719 206.625 Z M 227.136719 206.625 " fill-opacity="1" fill-rule="nonzero"/></g></svg>