<svg xmlns="http://www.w3.org/2000/svg" xmlns:xlink="http://www.w3.org/1999/xlink" width="500" zoomAndPan="magnify" viewBox="0 0 375 374.999991" height="500" preserveAspectRatio="xMidYMid meet" version="1.0"><defs><clipPath id="2b99e07a00"><path d="M 7.097656 7.097656 L 367.847656 7.097656 L 367.847656 367.847656 L 7.097656 367.847656 Z M 7.097656 7.097656 " clip-rule="nonzero"/></clipPath></defs><g clip-path="url(#2b99e07a00)"><path fill="#1db0d9" d="M 178.121094 367.605469 C 178.695312 367.765625 179.277344 367.847656 179.871094 367.847656 C 180.960938 367.847656 182.042969 367.847656 183.128906 367.792969 C 184.570312 367.828125 186.019531 367.847656 187.472656 367.847656 C 205.84375 367.847656 225.65625 363.453125 243.214844 355.46875 C 262.089844 346.890625 276.933594 334.992188 286.125 321.0625 C 298.035156 303.015625 299.714844 282.679688 290.984375 262.226562 C 278.328125 232.613281 244.804688 223.179688 212.375 214.054688 C 204.828125 211.9375 197.378906 209.839844 190.238281 207.53125 C 183.027344 204.113281 175.625 201.195312 168.019531 198.78125 C 151.25 190.453125 138.632812 178.648438 134.699219 158.675781 C 129.96875 134.523438 142.132812 110.832031 166.429688 96.835938 C 171.195312 94.144531 176.167969 91.921875 181.351562 90.164062 C 186.53125 88.40625 191.832031 87.140625 197.25 86.375 C 202.664062 85.605469 208.109375 85.347656 213.574219 85.597656 C 219.039062 85.847656 224.433594 86.601562 229.757812 87.859375 C 244.238281 92.773438 257.550781 99.871094 269.707031 109.152344 L 269.789062 109.207031 L 270.101562 109.414062 L 270.351562 109.574219 L 270.671875 109.746094 L 270.949219 109.886719 L 271.261719 110.019531 L 271.566406 110.136719 L 271.855469 110.226562 L 272.199219 110.324219 L 272.476562 110.378906 L 272.835938 110.441406 L 274.398438 110.441406 L 274.746094 110.40625 L 275.042969 110.351562 L 275.371094 110.28125 L 275.675781 110.191406 L 275.988281 110.09375 L 276.285156 109.976562 L 276.585938 109.851562 L 276.871094 109.707031 C 276.964844 109.648438 277.0625 109.601562 277.160156 109.539062 C 277.257812 109.476562 277.339844 109.429688 277.425781 109.371094 L 277.714844 109.179688 L 277.953125 108.984375 C 278.050781 108.90625 278.140625 108.839844 278.230469 108.753906 C 278.320312 108.671875 278.382812 108.609375 278.453125 108.53125 C 278.523438 108.457031 278.625 108.367188 278.703125 108.277344 C 278.730469 108.25 278.753906 108.226562 278.777344 108.199219 C 278.835938 108.136719 278.875 108.074219 278.929688 108.003906 L 279.078125 107.839844 L 279.132812 107.753906 C 279.210938 107.652344 279.277344 107.546875 279.347656 107.4375 L 279.5 107.191406 C 279.570312 107.082031 279.625 106.96875 279.679688 106.859375 C 279.738281 106.75 279.769531 106.6875 279.8125 106.601562 C 279.855469 106.519531 279.910156 106.378906 279.953125 106.269531 C 279.992188 106.160156 280.027344 106.082031 280.0625 105.984375 C 280.097656 105.886719 280.132812 105.769531 280.160156 105.664062 C 280.1875 105.5625 280.222656 105.457031 280.242188 105.351562 C 280.265625 105.25 280.292969 105.144531 280.3125 105.039062 C 280.332031 104.9375 280.355469 104.824219 280.367188 104.714844 C 280.382812 104.601562 280.367188 104.511719 280.367188 104.410156 C 280.367188 104.304688 280.367188 104.1875 280.367188 104.074219 C 280.367188 103.964844 280.367188 103.867188 280.367188 103.761719 C 280.367188 103.660156 280.367188 103.546875 280.367188 103.4375 C 280.375 103.328125 280.375 103.21875 280.367188 103.109375 C 280.367188 103.007812 280.367188 102.910156 280.332031 102.804688 C 280.300781 102.699219 280.292969 102.582031 280.269531 102.472656 C 280.25 102.359375 280.269531 102.277344 280.207031 102.171875 C 280.144531 102.070312 280.144531 101.957031 280.113281 101.847656 C 280.078125 101.734375 280.054688 101.652344 280.019531 101.5625 C 279.988281 101.472656 279.9375 101.347656 279.894531 101.234375 C 279.855469 101.125 279.820312 101.054688 279.777344 100.957031 L 279.625 100.660156 C 279.578125 100.570312 279.527344 100.472656 279.472656 100.382812 L 279.300781 100.113281 C 279.238281 100.015625 279.175781 99.925781 279.105469 99.832031 C 279.035156 99.742188 278.980469 99.667969 278.910156 99.582031 C 278.839844 99.5 278.765625 99.402344 278.679688 99.3125 L 278.460938 99.085938 C 278.375 99 278.292969 98.917969 278.203125 98.839844 C 278.179688 98.8125 278.15625 98.785156 278.125 98.765625 C 272.054688 93.382812 265.453125 88.746094 258.328125 84.863281 C 251.203125 80.980469 243.734375 77.949219 235.917969 75.765625 C 228.0625 72.984375 220.027344 70.890625 211.816406 69.484375 C 203.605469 68.074219 195.332031 67.371094 187 67.371094 L 186.210938 67.371094 C 157.746094 67.515625 129.566406 76.257812 108.941406 91.351562 C 82.457031 110.726562 71.941406 137.210938 80.8125 162.195312 C 91.324219 191.804688 116.382812 198.46875 142.917969 205.53125 C 149.5 207.285156 156.273438 209.09375 163.140625 211.277344 C 170.308594 214.660156 177.671875 217.554688 185.222656 219.964844 C 203.574219 228.898438 221.824219 243.011719 238.1875 268.476562 C 249.203125 285.625 250.164062 305.269531 240.804688 322.417969 C 230.292969 341.71875 208.820312 353.519531 183.007812 354.414062 C 92.980469 352.039062 20.476562 278.050781 20.476562 187.472656 C 20.476562 95.390625 95.390625 20.476562 187.472656 20.476562 C 279.554688 20.476562 354.46875 95.390625 354.46875 187.472656 C 354.484375 187.902344 354.539062 188.328125 354.636719 188.75 C 354.730469 189.167969 354.867188 189.574219 355.039062 189.96875 C 355.214844 190.359375 355.425781 190.734375 355.671875 191.085938 C 355.917969 191.441406 356.195312 191.765625 356.503906 192.066406 C 356.8125 192.367188 357.148438 192.632812 357.507812 192.867188 C 357.871094 193.101562 358.25 193.300781 358.648438 193.460938 C 359.046875 193.625 359.457031 193.746094 359.878906 193.828125 C 360.304688 193.910156 360.730469 193.949219 361.160156 193.949219 C 361.589844 193.949219 362.015625 193.910156 362.4375 193.828125 C 362.859375 193.746094 363.273438 193.625 363.671875 193.460938 C 364.070312 193.300781 364.449219 193.101562 364.808594 192.867188 C 365.171875 192.632812 365.507812 192.367188 365.816406 192.066406 C 366.125 191.765625 366.402344 191.441406 366.648438 191.085938 C 366.894531 190.734375 367.105469 190.359375 367.277344 189.96875 C 367.453125 189.574219 367.589844 189.167969 367.683594 188.75 C 367.78125 188.328125 367.835938 187.902344 367.847656 187.472656 C 367.847656 88.011719 286.929688 7.097656 187.472656 7.097656 C 88.019531 7.097656 7.097656 88.011719 7.097656 187.472656 C 7.097656 283.796875 82.992188 362.726562 178.121094 367.605469 Z M 93.441406 157.746094 C 86.652344 138.648438 95.410156 117.871094 116.863281 102.171875 C 129.824219 92.691406 146.332031 85.808594 164.585938 82.6875 C 162.945312 83.503906 161.339844 84.367188 159.761719 85.277344 C 130.351562 102.214844 115.71875 131.332031 121.578125 161.265625 C 122.515625 166.386719 124.050781 171.316406 126.191406 176.0625 C 128.335938 180.804688 131.015625 185.222656 134.234375 189.3125 C 114.523438 183.578125 100.257812 176.941406 93.441406 157.746094 Z M 249.453125 261.242188 C 242.617188 250.449219 234.597656 240.617188 225.398438 231.75 C 249.523438 239.109375 270.398438 248.113281 278.679688 267.492188 C 285.664062 283.832031 284.414062 299.382812 274.960938 313.699219 C 268.34375 323.722656 257.902344 332.589844 245.394531 339.46875 C 248.117188 336.144531 250.507812 332.597656 252.566406 328.824219 C 264.164062 307.589844 263.003906 282.328125 249.453125 261.242188 Z M 249.453125 261.242188 " fill-opacity="1" fill-rule="nonzero"/></g></svg>